# xmcd CD database file
#
# Track frame offsets:
#	170
#	15498
#	28099
#	40867
#	51103
#	54986
#	69150
#	87684
#	101049
#	124312
#	132198
#
# Disc length: 2116 seconds
#
# Revision: 0
# Processed by: cddbd v1.5.2PL0 Copyright (c) Steve Scherf et al.
# Submitted via: CDex 1.51
#
DISCID=9108420b
DTITLE=The Shiverz - Pink Rock
DYEAR=2000
DGENRE=New Age
TTITLE0=Big Horn
TTITLE1=Cowbell
TTITLE2=Nothin But A  Good Time Trouble
TTITLE3=Werepig Sweetie
TTITLE4=Song For Arge
TTITLE5=Country
TTITLE6=Spherey Eyne
TTITLE7=Through With You
TTITLE8=Rock N Roll Kitty Cat
TTITLE9=Feathercraft
TTITLE10=Nuwave
EXTD=YEAR: 2000
EXTT0=
EXTT1=
EXTT2=
EXTT3=
EXTT4=
EXTT5=
EXTT6=
EXTT7=
EXTT8=
EXTT9=
EXTT10=
PLAYORDER=
